<svg width="291" height="291" viewBox="0 0 291 291" fill="none" xmlns="http://www.w3.org/2000/svg">
<circle cx="144.5" cy="144.5" r="126" fill="white" stroke="#AFAFAF"/>
<path d="M141.63 25.0909V36H139.324V27.2802H139.26L136.762 28.8462V26.8008L139.462 25.0909H141.63ZM144.223 36V34.3381L148.106 30.7425C148.437 30.4229 148.714 30.1353 148.937 29.8796C149.165 29.6239 149.337 29.3736 149.454 29.1286C149.571 28.88 149.63 28.6119 149.63 28.3242C149.63 28.0046 149.557 27.7294 149.411 27.4986C149.266 27.2642 149.067 27.0849 148.815 26.9606C148.563 26.8327 148.277 26.7688 147.957 26.7688C147.623 26.7688 147.332 26.8363 147.084 26.9712C146.835 27.1062 146.643 27.2997 146.508 27.5518C146.373 27.804 146.306 28.104 146.306 28.4521H144.117C144.117 27.7383 144.278 27.1186 144.601 26.593C144.924 26.0675 145.377 25.6609 145.96 25.3732C146.542 25.0856 147.213 24.9418 147.973 24.9418C148.754 24.9418 149.434 25.0803 150.013 25.3572C150.596 25.6307 151.048 26.0107 151.372 26.4972C151.695 26.9837 151.856 27.5412 151.856 28.1697C151.856 28.5817 151.775 28.9883 151.611 29.3896C151.451 29.7908 151.166 30.2365 150.754 30.7266C150.342 31.2131 149.761 31.7972 149.012 32.479L147.419 34.0398V34.1143H152V36H144.223Z" fill="#AFAFAF"/>
<path d="M260.917 150.149C260.121 150.149 259.413 150.012 258.791 149.739C258.173 149.462 257.685 149.082 257.326 148.599C256.971 148.113 256.788 147.551 256.778 146.916H259.1C259.114 147.182 259.201 147.417 259.361 147.619C259.525 147.818 259.741 147.972 260.011 148.082C260.281 148.192 260.585 148.248 260.922 148.248C261.273 148.248 261.584 148.185 261.854 148.061C262.124 147.937 262.335 147.765 262.488 147.544C262.641 147.324 262.717 147.07 262.717 146.783C262.717 146.491 262.635 146.234 262.472 146.01C262.312 145.783 262.081 145.605 261.779 145.478C261.481 145.35 261.126 145.286 260.714 145.286H259.697V143.592H260.714C261.062 143.592 261.369 143.532 261.636 143.411C261.906 143.29 262.115 143.123 262.264 142.91C262.413 142.694 262.488 142.441 262.488 142.154C262.488 141.88 262.422 141.641 262.291 141.435C262.163 141.225 261.982 141.062 261.748 140.945C261.517 140.827 261.247 140.769 260.938 140.769C260.625 140.769 260.339 140.826 260.08 140.939C259.821 141.049 259.613 141.207 259.457 141.413C259.301 141.619 259.217 141.861 259.207 142.138H256.996C257.007 141.509 257.186 140.955 257.534 140.476C257.882 139.996 258.351 139.622 258.94 139.352C259.533 139.078 260.203 138.942 260.949 138.942C261.701 138.942 262.36 139.078 262.925 139.352C263.489 139.625 263.928 139.995 264.24 140.46C264.556 140.922 264.713 141.44 264.709 142.015C264.713 142.626 264.523 143.136 264.139 143.544C263.759 143.952 263.264 144.212 262.653 144.322V144.407C263.456 144.51 264.066 144.789 264.485 145.243C264.908 145.694 265.118 146.259 265.114 146.937C265.118 147.559 264.938 148.111 264.576 148.594C264.217 149.077 263.722 149.457 263.09 149.734C262.458 150.011 261.733 150.149 260.917 150.149Z" fill="#AFAFAF"/>
<path d="M28.8313 138.942C29.3924 138.942 29.9322 139.036 30.4506 139.224C30.9727 139.412 31.4379 139.712 31.8462 140.124C32.2582 140.536 32.5831 141.083 32.821 141.765C33.0625 142.443 33.185 143.276 33.1886 144.263C33.1886 145.19 33.0838 146.017 32.8743 146.745C32.6683 147.47 32.3718 148.086 31.9847 148.594C31.5977 149.102 31.1307 149.489 30.5838 149.755C30.0369 150.018 29.4261 150.149 28.7514 150.149C28.0234 150.149 27.3807 150.009 26.8232 149.728C26.2656 149.444 25.8164 149.059 25.4755 148.572C25.1381 148.082 24.9339 147.532 24.8629 146.921H27.1374C27.2262 147.319 27.4126 147.628 27.6967 147.848C27.9808 148.065 28.3324 148.173 28.7514 148.173C29.4616 148.173 30.0014 147.864 30.3707 147.246C30.7401 146.625 30.9265 145.774 30.93 144.695H30.8555C30.6921 145.014 30.4719 145.289 30.195 145.52C29.918 145.748 29.6001 145.923 29.2415 146.048C28.8864 146.172 28.5082 146.234 28.1069 146.234C27.4641 146.234 26.8906 146.083 26.3864 145.781C25.8821 145.479 25.4844 145.064 25.1932 144.535C24.902 144.006 24.7564 143.402 24.7564 142.724C24.7528 141.992 24.9215 141.341 25.2624 140.769C25.6033 140.197 26.0792 139.75 26.69 139.426C27.3043 139.1 28.0181 138.938 28.8313 138.942ZM28.8473 140.753C28.4886 140.753 28.169 140.838 27.8885 141.009C27.6115 141.179 27.3913 141.408 27.228 141.696C27.0682 141.983 26.9901 142.305 26.9936 142.66C26.9936 143.018 27.0717 143.342 27.228 143.629C27.3878 143.913 27.6044 144.141 27.8778 144.311C28.1548 144.478 28.4709 144.561 28.826 144.561C29.0923 144.561 29.3391 144.512 29.5664 144.412C29.7937 144.313 29.9908 144.176 30.1577 144.002C30.3281 143.825 30.4613 143.62 30.5572 143.39C30.6531 143.159 30.701 142.914 30.701 142.654C30.6974 142.31 30.6158 141.994 30.456 141.706C30.2962 141.419 30.076 141.188 29.7955 141.014C29.5149 140.84 29.1989 140.753 28.8473 140.753Z" fill="#AFAFAF"/>
<path d="M146.071 267.149C145.51 267.146 144.968 267.051 144.446 266.867C143.928 266.682 143.463 266.382 143.051 265.967C142.639 265.551 142.312 265.001 142.071 264.315C141.833 263.63 141.714 262.788 141.714 261.79C141.717 260.874 141.822 260.056 142.028 259.335C142.238 258.61 142.536 257.996 142.923 257.492C143.314 256.988 143.781 256.604 144.324 256.341C144.867 256.075 145.476 255.942 146.151 255.942C146.879 255.942 147.522 256.084 148.079 256.368C148.637 256.648 149.084 257.03 149.422 257.513C149.762 257.996 149.968 258.538 150.039 259.138H147.765C147.676 258.758 147.49 258.46 147.206 258.243C146.922 258.026 146.57 257.918 146.151 257.918C145.441 257.918 144.901 258.227 144.532 258.845C144.166 259.463 143.979 260.303 143.972 261.364H144.047C144.21 261.041 144.43 260.766 144.707 260.539C144.988 260.308 145.306 260.132 145.661 260.011C146.02 259.887 146.398 259.825 146.795 259.825C147.442 259.825 148.017 259.978 148.521 260.283C149.026 260.585 149.423 261 149.714 261.529C150.006 262.059 150.151 262.664 150.151 263.346C150.151 264.085 149.979 264.741 149.635 265.317C149.294 265.892 148.816 266.343 148.202 266.67C147.591 266.993 146.881 267.153 146.071 267.149ZM146.06 265.338C146.415 265.338 146.733 265.253 147.014 265.082C147.294 264.912 147.515 264.681 147.674 264.39C147.834 264.099 147.914 263.772 147.914 263.41C147.914 263.048 147.834 262.723 147.674 262.435C147.518 262.147 147.301 261.918 147.025 261.748C146.748 261.577 146.431 261.492 146.076 261.492C145.81 261.492 145.563 261.542 145.336 261.641C145.112 261.741 144.915 261.879 144.745 262.057C144.578 262.234 144.446 262.44 144.35 262.675C144.255 262.906 144.207 263.152 144.207 263.415C144.207 263.767 144.287 264.088 144.446 264.379C144.61 264.67 144.83 264.903 145.107 265.077C145.387 265.251 145.705 265.338 146.06 265.338Z" fill="#AFAFAF"/>
<mask id="path-6-inside-1_407_265" fill="white">
<path d="M145.482 38.9817C164.176 38.9817 182.54 43.9023 198.73 53.2489L145.482 145.482V38.9817Z"/>
</mask>
<path d="M145.482 38.9817C164.176 38.9817 182.54 43.9023 198.73 53.2489L145.482 145.482V38.9817Z" fill="white" stroke="#AFAFAF" stroke-width="2" mask="url(#path-6-inside-1_407_265)"/>
<mask id="path-7-inside-2_407_265" fill="white">
<path d="M198.732 53.2501C214.921 62.597 228.365 76.0407 237.713 92.2299L145.482 145.482L198.732 53.2501Z"/>
</mask>
<path d="M198.732 53.2501C214.921 62.597 228.365 76.0407 237.713 92.2299L145.482 145.482L198.732 53.2501Z" fill="white" stroke="#AFAFAF" stroke-width="2" mask="url(#path-7-inside-2_407_265)"/>
<mask id="path-8-inside-3_407_265" fill="white">
<path d="M237.714 92.2317C247.061 108.421 251.982 126.786 251.982 145.479L145.482 145.482L237.714 92.2317Z"/>
</mask>
<path d="M237.714 92.2317C247.061 108.421 251.982 126.786 251.982 145.479L145.482 145.482L237.714 92.2317Z" fill="white" stroke="#AFAFAF" stroke-width="2" mask="url(#path-8-inside-3_407_265)"/>
<mask id="path-9-inside-4_407_265" fill="white">
<path d="M251.982 145.482C251.982 164.176 247.061 182.54 237.715 198.73L145.482 145.482L251.982 145.482Z"/>
</mask>
<path d="M251.982 145.482C251.982 164.176 247.061 182.54 237.715 198.73L145.482 145.482L251.982 145.482Z" fill="white" stroke="#AFAFAF" stroke-width="2" mask="url(#path-9-inside-4_407_265)"/>
<mask id="path-10-inside-5_407_265" fill="white">
<path d="M237.714 198.732C228.367 214.921 214.923 228.365 198.734 237.712L145.482 145.482L237.714 198.732Z"/>
</mask>
<path d="M237.714 198.732C228.367 214.921 214.923 228.365 198.734 237.712L145.482 145.482L237.714 198.732Z" fill="white" stroke="#AFAFAF" stroke-width="2" mask="url(#path-10-inside-5_407_265)"/>
<mask id="path-11-inside-6_407_265" fill="white">
<path d="M198.732 237.713C182.543 247.06 164.178 251.981 145.484 251.982L145.482 145.482L198.732 237.713Z"/>
</mask>
<path d="M198.732 237.713C182.543 247.06 164.178 251.981 145.484 251.982L145.482 145.482L198.732 237.713Z" fill="white" stroke="#AFAFAF" stroke-width="2" mask="url(#path-11-inside-6_407_265)"/>
<mask id="path-12-inside-7_407_265" fill="white">
<path d="M145.482 251.982C126.788 251.982 108.423 247.061 92.2339 237.715L145.482 145.482L145.482 251.982Z"/>
</mask>
<path d="M145.482 251.982C126.788 251.982 108.423 247.061 92.2339 237.715L145.482 145.482L145.482 251.982Z" fill="white" stroke="#AFAFAF" stroke-width="2" mask="url(#path-12-inside-7_407_265)"/>
<mask id="path-13-inside-8_407_265" fill="white">
<path d="M92.2319 237.713C76.0425 228.366 62.5986 214.923 53.2513 198.734L145.482 145.482L92.2319 237.713Z"/>
</mask>
<path d="M92.2319 237.713C76.0425 228.366 62.5986 214.923 53.2513 198.734L145.482 145.482L92.2319 237.713Z" fill="white" stroke="#AFAFAF" stroke-width="2" mask="url(#path-13-inside-8_407_265)"/>
<mask id="path-14-inside-9_407_265" fill="white">
<path d="M53.2502 198.732C43.9033 182.542 38.9823 164.178 38.9819 145.484L145.482 145.482L53.2502 198.732Z"/>
</mask>
<path d="M53.2502 198.732C43.9033 182.542 38.9823 164.178 38.9819 145.484L145.482 145.482L53.2502 198.732Z" fill="white" stroke="#AFAFAF" stroke-width="2" mask="url(#path-14-inside-9_407_265)"/>
<mask id="path-15-inside-10_407_265" fill="white">
<path d="M38.9819 145.482C38.9819 126.788 43.9025 108.423 53.2491 92.2336L145.482 145.482L38.9819 145.482Z"/>
</mask>
<path d="M38.9819 145.482C38.9819 126.788 43.9025 108.423 53.2491 92.2336L145.482 145.482L38.9819 145.482Z" fill="white" stroke="#AFAFAF" stroke-width="2" mask="url(#path-15-inside-10_407_265)"/>
<mask id="path-16-inside-11_407_265" fill="white">
<path d="M53.2502 92.2317C62.5971 76.0423 76.0408 62.5984 92.23 53.2511L145.482 145.482L53.2502 92.2317Z"/>
</mask>
<path d="M53.2502 92.2317C62.5971 76.0423 76.0408 62.5984 92.23 53.2511L145.482 145.482L53.2502 92.2317Z" fill="white" stroke="#AFAFAF" stroke-width="2" mask="url(#path-16-inside-11_407_265)"/>
<mask id="path-17-inside-12_407_265" fill="white">
<path d="M92.2319 53.25C108.421 43.903 126.786 38.9821 145.48 38.9817L145.482 145.482L92.2319 53.25Z"/>
</mask>
<path d="M92.2319 53.25C108.421 43.903 126.786 38.9821 145.48 38.9817L145.482 145.482L92.2319 53.25Z" fill="white" stroke="#AFAFAF" stroke-width="2" mask="url(#path-17-inside-12_407_265)"/>
</svg>
